<svg id="Capa_1" data-name="Capa 1" xmlns="http://www.w3.org/2000/svg" viewBox="0 0 14400 14400"><defs><style>.cls-1{fill:red;}.cls-2,.cls-3{fill:#fff;}.cls-2{stroke:#000;stroke-miterlimit:10;stroke-width:12px;}</style></defs><title>logo seven</title><rect class="cls-1" x="6715.46" y="6715.46" width="968.08" height="968.08" rx="236.33"/><path class="cls-2" d="M7488,7175.46s-3.39,43.23,87.4,66.8c0,0,17.95-73.13,11.28-84C7586.69,7158.27,7513.69,7141.73,7488,7175.46Z"/><path d="M7503.17,7172.41s-6.88,41.25,76.62,72.45c-23.25,104.29-74.44,208.59-180.7,265.45,0,0-51.32,10-128.31-48.48,0,0-68.44-54.18-108.36-108.35s-52.75-417.75-41.35-470.5c0,0,138.3,77,255.21,81.27s211-28.52,211-28.52,18,103.29,5.76,225.44C7572.45,7156.22,7525.13,7148.25,7503.17,7172.41Z"/><path class="cls-3" d="M7456.12,7155.3s-24.24,2.85-112.64-48.48c0,0-32.79-20-74.13,12.83s0,59.89,0,59.89,39.92,29.94,88.39,22.81S7451.84,7176.68,7456.12,7155.3Z"/><path class="cls-2" d="M7282.18,7141c-20,171.09-22.81,295.13-233.82,396.36,0,0-155-55.53-212.86-236.4a435.14,435.14,0,0,1-15.26-64.43q-3.9-24.49-6.85-46.52c-26.16-194.58-.28-250-.28-250s99.8,52.75,169.67,35.64,169.66-41.34,249.5-114C7232.28,6861.6,7302.14,6970,7282.18,7141Z"/><path d="M6984.2,7265.08s1.42-62.73,59.88-114.06,98.37-57,98.37-57,29.95,96.95-39.92,136.87S6994.18,7277.91,6984.2,7265.08Z"/><path d="M6931.45,7282.19s-12.27,22.65-95.95,18.81a435.14,435.14,0,0,1-15.26-64.43q-3.9-24.49-6.85-46.52C6848.28,7197,6905.6,7218.06,6931.45,7282.19Z"/><path class="cls-3" d="M7511.72,7357.75s10,28.52-20,38.5c0,0-54.18-44.2-111.21-52.75,0,0-52.75,2.85-87,41.34,0,0,38.5-64.16,111.21-64.16C7404.79,7320.68,7466.1,7329.24,7511.72,7357.75Z"/><path d="M7104,7280.76s54.18,124-78.42,182.5c0,0-55.6,32.79-132.59-98.38,0,0,45.62,7.13,125.47-31.36S7104,7280.76,7104,7280.76Z"/></svg>