<svg id="Capa_1" data-name="Capa 1" xmlns="http://www.w3.org/2000/svg" viewBox="0 0 1080 1080"><defs><style>.cls-1{fill:red;}.cls-2,.cls-3{fill:#fff;}.cls-2{stroke:#000;stroke-miterlimit:10;stroke-width:12px;}</style></defs><title>logo seven</title><rect class="cls-1" x="55.96" y="55.96" width="968.08" height="968.08" rx="236.33"/><path class="cls-2" d="M828.51,516s-3.39,43.23,87.4,66.8c0,0,18-73.13,11.28-84C927.19,498.77,854.19,482.23,828.51,516Z"/><path d="M843.67,512.91s-6.88,41.25,76.62,72.45C897,689.65,845.85,794,739.59,850.81c0,0-51.32,10-128.31-48.48,0,0-68.44-54.18-108.36-108.35s-52.75-417.75-41.35-470.5c0,0,138.3,77,255.21,81.27s211-28.52,211-28.52,18,103.29,5.76,225.44C913,496.72,865.63,488.75,843.67,512.91Z"/><path class="cls-3" d="M796.62,495.8S772.38,498.65,684,447.32c0,0-32.79-20-74.13,12.83s0,59.89,0,59.89,39.92,29.94,88.39,22.81S792.34,517.18,796.62,495.8Z"/><path class="cls-2" d="M622.68,481.54c-20,171.09-22.81,295.13-233.82,396.36,0,0-155-55.53-212.86-236.4a435.14,435.14,0,0,1-15.26-64.43q-3.9-24.5-6.85-46.52c-26.16-194.58-.28-250-.28-250s99.8,52.75,169.67,35.64,169.66-41.34,249.5-114C572.78,202.1,642.64,310.45,622.68,481.54Z"/><path d="M324.7,605.58s1.42-62.73,59.88-114.06,98.37-57,98.37-57,29.95,97-39.92,136.87S334.68,618.41,324.7,605.58Z"/><path d="M272,622.69S259.68,645.34,176,641.5a435.14,435.14,0,0,1-15.26-64.43q-3.9-24.5-6.85-46.52C188.78,537.48,246.1,558.56,272,622.69Z"/><path class="cls-3" d="M852.22,698.25s10,28.52-20,38.5c0,0-54.18-44.2-111.21-52.75,0,0-52.75,2.85-87,41.34,0,0,38.5-64.16,111.21-64.16C745.29,661.18,806.6,669.74,852.22,698.25Z"/><path d="M444.46,621.26s54.18,124-78.42,182.5c0,0-55.6,32.79-132.59-98.38,0,0,45.62,7.13,125.47-31.36S444.46,621.26,444.46,621.26Z"/></svg>